<svg width="32px" height="32px" viewBox="0 0 40.96 40.96" class="icon" xmlns="http://www.w3.org/2000/svg"><path fill="#fff" d="M20.48 5.12a5.12 5.12 0 0 0 -5.12 5.12v10.24a5.12 5.12 0 1 0 10.24 0V10.24a5.12 5.12 0 0 0 -5.12 -5.12m0 -2.56a7.68 7.68 0 0 1 7.68 7.68v10.24a7.68 7.68 0 1 1 -15.36 0V10.24A7.68 7.68 0 0 1 20.48 2.56m-1.28 33.28v-2.56a11.52 11.52 0 0 1 -11.52 -11.52v-1.28a1.28 1.28 0 0 1 2.56 0v1.28a8.96 8.96 0 0 0 8.96 8.96h2.56a8.96 8.96 0 0 0 8.96 -8.96v-1.28a1.28 1.28 0 1 1 2.56 0v1.28a11.52 11.52 0 0 1 -11.52 11.52v2.56h2.56a1.28 1.28 0 1 1 0 2.56H16.64a1.28 1.28 0 1 1 0 -2.56z"/></svg>